<svg xmlns="http://www.w3.org/2000/svg" viewBox="0 0 32 32">
  <rect x="6" y="4" width="4" height="4" fill="#C8102E"/>
  <rect x="10" y="4" width="4" height="4" fill="#C8102E"/>
  <rect x="18" y="4" width="4" height="4" fill="#C8102E"/>
  <rect x="22" y="4" width="4" height="4" fill="#C8102E"/>
  <rect x="4" y="8" width="4" height="4" fill="#C8102E"/>
  <rect x="8" y="8" width="4" height="4" fill="#C8102E"/>
  <rect x="12" y="8" width="4" height="4" fill="#C8102E"/>
  <rect x="16" y="8" width="4" height="4" fill="#C8102E"/>
  <rect x="20" y="8" width="4" height="4" fill="#C8102E"/>
  <rect x="24" y="8" width="4" height="4" fill="#C8102E"/>
  <rect x="4" y="12" width="4" height="4" fill="#C8102E"/>
  <rect x="8" y="12" width="4" height="4" fill="#C8102E"/>
  <rect x="12" y="12" width="4" height="4" fill="#C8102E"/>
  <rect x="16" y="12" width="4" height="4" fill="#C8102E"/>
  <rect x="20" y="12" width="4" height="4" fill="#C8102E"/>
  <rect x="24" y="12" width="4" height="4" fill="#C8102E"/>
  <rect x="6" y="16" width="4" height="4" fill="#C8102E"/>
  <rect x="10" y="16" width="4" height="4" fill="#C8102E"/>
  <rect x="14" y="16" width="4" height="4" fill="#C8102E"/>
  <rect x="18" y="16" width="4" height="4" fill="#C8102E"/>
  <rect x="22" y="16" width="4" height="4" fill="#C8102E"/>
  <rect x="8" y="20" width="4" height="4" fill="#C8102E"/>
  <rect x="12" y="20" width="4" height="4" fill="#C8102E"/>
  <rect x="16" y="20" width="4" height="4" fill="#C8102E"/>
  <rect x="20" y="20" width="4" height="4" fill="#C8102E"/>
  <rect x="10" y="24" width="4" height="4" fill="#C8102E"/>
  <rect x="14" y="24" width="4" height="4" fill="#C8102E"/>
  <rect x="18" y="24" width="4" height="4" fill="#C8102E"/>
  <rect x="14" y="28" width="4" height="4" fill="#C8102E"/>
</svg>
